<svg xmlns="http://www.w3.org/2000/svg" xmlns:se="http://svg-edit.googlecode.com" xmlns:xlink="http://www.w3.org/1999/xlink" xmlns:dc="http://purl.org/dc/elements/1.1/" xmlns:cc="http://creativecommons.org/ns#" xmlns:rdf="http://www.w3.org/1999/02/22-rdf-syntax-ns#" xmlns:inkscape="http://www.inkscape.org/namespaces/inkscape" width="777" height="480" style="">
                                    <title>my vector image</title>
                                    <!-- Created with Vector Paint - http://www.vectorpaint.yaks.com/ https://chrome.google.com/webstore/detail/hnbpdiengicdefcjecjbnjnoifekhgdo -->
                                    <rect id="backgroundrect" width="100%" height="100%" x="0" y="0" fill="#FFFFFF" stroke="none"/>
                                <g style="" class="currentLayer"><title>Layer 1</title><path fill="#b6b6b6" fill-opacity="1" stroke="#222222" stroke-opacity="1" stroke-width="2" stroke-dasharray="none" stroke-linejoin="round" stroke-linecap="butt" stroke-dashoffset="" fill-rule="nonzero" opacity="1" marker-start="" marker-mid="" marker-end="" d="M196,147 C196,101.69613259668509 236.72375690607734,65 287,65 C337.27624309392263,65 378,101.69613259668509 378,147 C378,192.3038674033149 337.27624309392263,229 287,229 C236.72375690607734,229 196,192.3038674033149 196,147 Z" id="svg_1" class="selected"/><path fill="#ecabec" fill-opacity="1" stroke="#222222" stroke-opacity="1" stroke-width="2" stroke-dasharray="none" stroke-linejoin="round" stroke-linecap="butt" stroke-dashoffset="" fill-rule="nonzero" opacity="1" marker-start="" marker-mid="" marker-end="" d="M316,149 C316,108.66850828729281 351.8011049723757,76 396,76 C440.1988950276243,76 476,108.66850828729281 476,149 C476,189.3314917127072 440.1988950276243,222 396,222 C351.8011049723757,222 316,189.3314917127072 316,149 Z" id="svg_3" class=""/><path fill="#abecec" fill-opacity="1" stroke="#222222" stroke-opacity="1" stroke-width="2" stroke-dasharray="none" stroke-linejoin="round" stroke-linecap="butt" stroke-dashoffset="" fill-rule="nonzero" opacity="1" marker-start="" marker-mid="" marker-end="" d="M432,185.5 C432,150.9696132596685 462.207182320442,123 499.5,123 C536.792817679558,123 567,150.9696132596685 567,185.5 C567,220.0303867403315 536.792817679558,248 499.5,248 C462.207182320442,248 432,220.0303867403315 432,185.5 Z" id="svg_5" class=""/></g></svg>